<?xml version="1.0" encoding="UTF-8" standalone="no" ?>
<!DOCTYPE svg PUBLIC "-//W3C//DTD SVG 1.1//EN" "http://www.w3.org/Graphics/SVG/1.1/DTD/svg11.dtd">
<svg xmlns="http://www.w3.org/2000/svg" xmlns:xlink="http://www.w3.org/1999/xlink" version="1.1" width="1080" height="1080" viewBox="0 0 1080 1080" xml:space="preserve">
<desc>Created with Fabric.js 5.2.4</desc>
<defs>
</defs>
<g transform="matrix(1 0 0 1 540 540)" id="1fa3b1bc-9ebf-4269-8e6e-2e34c484b719"  >
<rect style="stroke: none; stroke-width: 1; stroke-dasharray: none; stroke-linecap: butt; stroke-dashoffset: 0; stroke-linejoin: miter; stroke-miterlimit: 4; fill: rgb(255,255,255); fill-rule: nonzero; opacity: 1; visibility: hidden;" vector-effect="non-scaling-stroke"  x="-540" y="-540" rx="0" ry="0" width="1080" height="1080" />
</g>
<g transform="matrix(1 0 0 1 540 540)" id="a52acbc6-63a9-46c0-96fe-85c766d33bac"  >
</g>
<g transform="matrix(1 0 0 1 540 540)" id="05b16115-673c-446d-863f-1ac3a00d165e"  >
<path style="stroke: rgb(0,0,0); stroke-width: 0; stroke-dasharray: none; stroke-linecap: butt; stroke-dashoffset: 0; stroke-linejoin: miter; stroke-miterlimit: 4; fill: rgb(38,34,97); fill-rule: nonzero; opacity: 1;" vector-effect="non-scaling-stroke"  transform=" translate(-378.12, -298.45)" d="M 743.96 245.25 C 725.4200000000001 232.77 676.7 227.44 641.28 236.98 C 639.37 201.7 621.18 171.96999999999997 587.9 146.02999999999997 L 575.5799999999999 137.75999999999996 L 567.3699999999999 150.15999999999997 C 551.2299999999999 174.65999999999997 544.4299999999998 207.29999999999995 546.8399999999999 236.96999999999997 C 548.7399999999999 255.24999999999997 555.0999999999999 275.79999999999995 567.3699999999999 290.71 C 521.2699999999999 317.45 478.77999999999986 311.38 290.5999999999999 311.38 L 0.06 311.38 C -0.79 353.87 6.04 435.61 58.02 502.15 C 63.760000000000005 509.5 70.06 516.61 76.89 523.4599999999999 C 119.15 565.78 183 596.81 278.48 596.8999999999999 C 424.14 597.0299999999999 548.94 518.2999999999998 624.85 327.92999999999984 C 649.83 328.33999999999986 715.77 332.40999999999985 748.04 270.04999999999984 C 748.8299999999999 268.99999999999983 756.25 253.50999999999985 756.25 253.50999999999985 L 743.95 245.23999999999984 Z M 189.67 206.39 L 107.96999999999998 206.39 L 107.96999999999998 288.09 L 189.67 288.09 L 189.67 206.39 Z M 295.22 206.39 L 213.52000000000004 206.39 L 213.52000000000004 288.09 L 295.22 288.09 L 295.22 206.39 Z M 400.77 206.39 L 319.07 206.39 L 319.07 288.09 L 400.77 288.09 L 400.77 206.39 Z M 506.32 206.39 L 424.62 206.39 L 424.62 288.09 L 506.32 288.09 L 506.32 206.39 Z M 84.12 206.39 L 2.42 206.39 L 2.42 288.09 L 84.12 288.09 L 84.12 206.39 Z M 189.67 103.2 L 107.96999999999998 103.2 L 107.96999999999998 184.9 L 189.67 184.9 L 189.67 103.2 Z M 295.22 103.2 L 213.52000000000004 103.2 L 213.52000000000004 184.9 L 295.22 184.9 L 295.22 103.2 Z M 400.77 103.2 L 319.07 103.2 L 319.07 184.9 L 400.77 184.9 L 400.77 103.2 Z M 400.77 0 L 319.07 0 L 319.07 81.7 L 400.77 81.7 L 400.77 0 Z" stroke-linecap="round" />
</g>
<g transform="matrix(NaN NaN NaN NaN 0 0)"  >
<g style=""   >
</g>
</g>
</svg>