<?xml version="1.0" encoding="UTF-8" standalone="no"?>
<svg
   width="18"
   height="19"
   viewBox="0 0 18 19"
   fill="none"
   version="1.1"
   id="svg1"
   sodipodi:docname="slack.svg"
   inkscape:version="1.3.2 (091e20e, 2023-11-25, custom)"
   xmlns:inkscape="http://www.inkscape.org/namespaces/inkscape"
   xmlns:sodipodi="http://sodipodi.sourceforge.net/DTD/sodipodi-0.dtd"
   xmlns="http://www.w3.org/2000/svg"
   xmlns:svg="http://www.w3.org/2000/svg">
  <defs
     id="defs1" />
  <sodipodi:namedview
     id="namedview1"
     pagecolor="#ffffff"
     bordercolor="#000000"
     borderopacity="0.25"
     inkscape:showpageshadow="2"
     inkscape:pageopacity="0.0"
     inkscape:pagecheckerboard="0"
     inkscape:deskcolor="#d1d1d1"
     inkscape:zoom="38.894737"
     inkscape:cx="8.9986468"
     inkscape:cy="9.5"
     inkscape:window-width="1920"
     inkscape:window-height="974"
     inkscape:window-x="-11"
     inkscape:window-y="-11"
     inkscape:window-maximized="1"
     inkscape:current-layer="svg1" />
  <path
     d="m 13.82812,7.15625 c 0,-0.97656 0.85938,-1.83594 1.83594,-1.83594 1.015628,0 1.83594,0.85938 1.83594,1.83594 0,1.01563 -0.820312,1.83594 -1.83594,1.83594 h -1.83594 z m -0.89843,0 c 0,1.01563 -0.85938,1.83594 -1.83594,1.83594 -1.01563,0 -1.83594,-0.82031 -1.83594,-1.83594 V 2.58594 c 0,-1.01563 0.82031,-1.83594 1.83594,-1.83594 0.97656,0 1.83594,0.82031 1.83594,1.83594 z m -1.83594,7.38285 c 0.97656,0 1.83594,0.8593 1.83594,1.8359 0,1.0156 -0.85938,1.875 -1.83594,1.875 -1.01563,0 -1.83594,-0.8594 -1.83594,-1.875 v -1.8359 z m 0,-0.8985 c -1.01563,0 -1.83594,-0.8203 -1.83594,-1.8359 0,-1.0156 0.82031,-1.83595 1.83594,-1.83595 h 4.57031 c 1.015628,0 1.83594,0.82035 1.83594,1.83595 0,1.0156 -0.820312,1.8359 -1.83594,1.8359 z M 3.7109,11.8047 c 0,1.0156 -0.8593,1.8359 -1.8359,1.8359 C 0.8594,13.6406 0,12.8203 0,11.8047 0,10.7891 0.8594,9.96875 1.875,9.96875 h 1.8359 z m 0.8985,0 c 0,-1.0156 0.8203,-1.83595 1.8359,-1.83595 1.0156,0 1.83595,0.82035 1.83595,1.83595 v 4.5703 c 0,1.0156 -0.82035,1.875 -1.83595,1.875 -1.0156,0 -1.8359,-0.8594 -1.8359,-1.875 z M 6.4453,4.42188 C 5.4297,4.42188 4.6094,3.5625 4.6094,2.58594 4.6094,1.57031 5.4297,0.75 6.4453,0.75 c 1.0156,0 1.83595,0.82031 1.83595,1.83594 v 1.83594 z m 0,0.89843 c 1.0156,0 1.83595,0.85938 1.83595,1.83594 0,1.01563 -0.82035,1.83594 -1.83595,1.83594 H 1.875 C 0.8594,8.99219 0,8.17188 0,7.15625 0,6.17969 0.8594,5.32031 1.875,5.32031 Z"
     fill="#d3d7f6"
     id="path1" />
</svg>
